<svg width="151.000000" height="17.000000" viewBox="0 0 151 17" fill="none" xmlns="http://www.w3.org/2000/svg" xmlns:xlink="http://www.w3.org/1999/xlink">
	<desc>
			Created with Pixso.
	</desc>
	<defs/>
	<path id="   " d="M6.34 -0.51C7.42 -0.51 8.36 -0.42 8.63 -0.38L8.63 2.27L7.05 2.27C5.82 2.27 5.58 2.86 5.58 3.71L5.58 5.61L8.53 5.61L8.14 8.59L5.58 8.59L5.58 16.21L2.51 16.21L2.51 8.59L-0.05 8.59L-0.05 5.61L2.51 5.61L2.51 3.42C2.51 0.88 4.07 -0.51 6.34 -0.51ZM136.51 0.98C137.65 0.98 138.35 1.72 138.36 2.7C138.37 3.65 137.65 4.42 136.49 4.42L136.47 4.42C135.36 4.42 134.64 3.65 134.64 2.7C134.64 1.72 135.39 0.98 136.51 0.98ZM55.18 4.1C55.84 4.03 56.47 3.84 57.05 3.59C56.61 4.24 56.06 4.81 55.42 5.27C55.43 5.41 55.43 5.55 55.43 5.69C55.43 9.98 52.17 14.92 46.2 14.92C44.36 14.92 42.66 14.39 41.22 13.47C41.48 13.5 41.73 13.51 42 13.51C43.52 13.51 44.92 13 46.03 12.12C44.61 12.09 43.41 11.16 43 9.87C43.2 9.9 43.4 9.92 43.61 9.92C43.9 9.92 44.19 9.88 44.46 9.81C42.98 9.51 41.86 8.2 41.86 6.63L41.86 6.59C42.29 6.83 42.8 6.98 43.33 7C42.46 6.42 41.88 5.42 41.88 4.3C41.88 3.69 42.04 3.14 42.33 2.66C43.92 4.63 46.32 5.91 49.01 6.05C48.96 5.81 48.93 5.56 48.93 5.31C48.93 3.52 50.38 2.07 52.18 2.07C53.11 2.07 53.96 2.46 54.55 3.09C55.28 2.95 55.99 2.68 56.61 2.31C56.37 3.06 55.86 3.69 55.18 4.1ZM146.27 5.54C148.45 5.54 150.07 6.97 150.07 10.02L150.07 15.73L146.77 15.73L146.77 10.4C146.77 9.07 146.29 8.15 145.09 8.15C144.18 8.15 143.64 8.77 143.39 9.36C143.31 9.58 143.28 9.87 143.28 10.17L143.28 15.73L139.98 15.73C140.02 6.71 139.98 5.77 139.98 5.77L143.28 5.77L143.28 7.19C143.72 6.51 144.51 5.54 146.27 5.54ZM134.84 5.77L138.15 5.77L138.15 15.73L134.84 15.73L134.84 5.77Z" fill="#5E6648" fill-opacity="1.000000" fill-rule="evenodd"/>
	<path id="   " d="M98.81 7.44C98.88 7.81 98.93 8.18 98.93 8.67C98.93 12.87 96.11 15.86 91.86 15.86C87.79 15.86 84.5 12.56 84.5 8.5C84.5 4.43 87.79 1.13 91.86 1.13C93.85 1.13 95.5 1.86 96.79 3.06L94.79 4.98C94.25 4.46 93.29 3.84 91.86 3.84C89.35 3.84 87.3 5.92 87.3 8.5C87.3 11.07 89.35 13.15 91.86 13.15C94.77 13.15 95.87 11.05 96.04 9.97L91.86 9.97L91.86 7.44L98.81 7.44ZM105.54 7.44L107.64 7.44L107.64 9.55L105.54 9.55L105.54 11.65L103.43 11.65L103.43 9.55L101.33 9.55L101.33 7.44L103.43 7.44L103.43 5.34L105.54 5.34L105.54 7.44Z" fill="#FFFFFF" fill-opacity="1.000000" fill-rule="evenodd"/>
</svg>
